<?xml version="1.0" encoding="utf-8"?>
<!-- Generator: Adobe Illustrator 25.2.0, SVG Export Plug-In . SVG Version: 6.00 Build 0)  -->
<svg version="1.1" id="Calque_1" xmlns="http://www.w3.org/2000/svg" xmlns:xlink="http://www.w3.org/1999/xlink" x="0px" y="0px"
	 viewBox="0 0 566.93 566.93" style="enable-background:new 0 0 566.93 566.93;" xml:space="preserve">
<style type="text/css">
	.st0{fill:url(#SVGID_1_);}
	.st1{fill:#FFFFFF;}
	.st2{fill:#EEB92E;}
</style>
<g>
	<linearGradient id="SVGID_1_" gradientUnits="userSpaceOnUse" x1="283.4646" y1="552.7559" x2="283.4646" y2="14.1732">
		<stop  offset="0" style="stop-color:#1052C0"/>
		<stop  offset="1" style="stop-color:#22288A"/>
	</linearGradient>
	<path class="st0" d="M545.82,300.21L300.21,545.82c-9.25,9.25-24.24,9.25-33.49,0L21.11,300.21c-9.25-9.25-9.25-24.24,0-33.49
		L266.72,21.11c9.25-9.25,24.24-9.25,33.49,0l245.61,245.61C555.07,275.97,555.07,290.96,545.82,300.21z"/>
	<polygon class="st1" points="412.16,233.52 316.17,351.2 272.9,316.72 321.5,260.54 274.22,215.75 222.02,276.18 183.21,245.26 
		302.31,98.78 279.91,74.25 134.38,256.28 250.76,478.48 327.55,478.48 430.29,254.86 	"/>
	<polygon class="st2" points="300.88,181.62 337.5,142.16 377.68,188.02 351.72,221.44 	"/>
</g>
</svg>
