<?xml version="1.0" encoding="utf-8"?>
<!-- Generator: Adobe Illustrator 25.2.0, SVG Export Plug-In . SVG Version: 6.00 Build 0)  -->
<svg version="1.1" id="Calque_1" xmlns="http://www.w3.org/2000/svg" xmlns:xlink="http://www.w3.org/1999/xlink" x="0px" y="0px"
	 viewBox="0 0 500 500" style="enable-background:new 0 0 500 500;" xml:space="preserve">
<style type="text/css">
	.st0{fill:#1052C0;}
	.st1{fill:#0D3A7C;}
	.st2{fill:#A37D71;}
	.st3{fill:#937067;}
	.st4{fill:#B28879;}
	.st5{fill:#869EB7;}
	.st6{fill:#B7CCEA;}
	.st7{fill:#A3246A;}
	.st8{fill:#2B2B2B;}
</style>
<g>
	<path class="st0" d="M461.4,276.55c0,26.5-4.88,51.86-13.78,75.24C417.3,431.39,340.26,487.95,250,487.95
		c-61.13,0-116.19-25.94-154.79-67.42c-5.06-5.43-9.83-11.13-14.3-17.07c-8.93-11.89-16.64-24.74-22.94-38.39
		c-12.43-26.93-19.37-56.92-19.37-88.52c0-74.5,38.53-140,96.75-177.65c22.07-14.27,46.96-24.54,73.66-29.79
		c13.26-2.6,26.97-3.97,40.99-3.97C366.76,65.14,461.4,159.79,461.4,276.55z"/>
	<path class="st1" d="M212.87,342.9L95.21,420.53c-5.06-5.43-9.83-11.13-14.3-17.07c-8.93-11.89-16.64-24.74-22.94-38.39
		c8.7-15.27,20.44-35.75,22.94-39.51c4.08-6.12,89.1-32.88,93.7-44.39c0.76-19.94-36-45.22-39.83-78.16
		c-2.64-22.73-2.37-70.29,0.57-104.11c22.07-14.27,46.96-24.54,73.66-29.79L212.87,342.9z"/>
	<path class="st2" d="M336.82,305c0,0-20.76,11.23-57.53,33.7c-36.77,22.47-75.92,14.64-90.55-10.55c0.88-2.7,1.54-5.53,2-8.42
		c3.51-21.58-3.39-46.72-3.39-46.72c69.94-0.96,89.83-18.17,109.04-36.23c7.91-7.43,15.7-15,26.81-21.65
		C322.86,263.13,336.82,305,336.82,305z"/>
	<path class="st3" d="M321.95,236.96c0,0-35.77,54.4-69.98,77.38c-27.42,18.42-52.39,9.61-61.23,5.39
		c3.51-21.58-3.39-46.72-3.39-46.72c69.94-0.96,89.83-18.17,109.04-36.23L321.95,236.96z"/>
	<path class="st4" d="M160.48,143.63c0,0-6.47,59.57,8.17,89.19c14.64,29.62,20.77,59.91,51.4,66.72
		c30.64,6.81,64.34-19.06,86.81-40.51s24.51-59.57,24.51-59.57s1.7,12.26,14.64-7.15c12.94-19.4,25.19-51.06,1.7-48.68
		c4.09-35.4-4.09-81.36-33.02-99.4c-28.94-18.04-91.57-30.3-125.28,0S161.85,119.12,160.48,143.63z"/>
	<path class="st5" d="M447.62,351.79C417.3,431.39,340.26,487.95,250,487.95c-69.13,0-130.51-33.18-169.09-84.49
		c4.86-21.88,10.64-38.28,15.57-39.59c11.49-3.07,94.26-44.15,94.26-44.15c5.66,20.71,42.4,32.19,42.4,32.19l131.68-32.19
		C364.82,319.72,395.01,330.76,447.62,351.79z"/>
	<g>
		<path class="st6" d="M191.58,300.66c0,0-0.33,37.77,41.56,51.26c0,0-36.84,26.08-41.56,33.57c-5.06,0.68-9.49-27.06-6.08-61.45
			C186.69,312.81,185.92,297.87,191.58,300.66z"/>
		<path class="st6" d="M233.14,351.92c0,0,67.11-29.6,84.44-41.41c17.34-11.81,15.19-19.88,15.19-19.88s3.45-2.59,9.84,3.29
			c6.38,5.87,21.45,26.55,36,31.66c-34.47,12.51-81.96,65.36-103.4,71.75c-5.87,1.53-9.7-3.57-18.38-19.15
			C248.14,362.59,244.96,358.86,233.14,351.92z"/>
	</g>
	<path class="st3" d="M354.61,153.83c0,0-1.11-2.72-5.19-1.96c-4.09,0.77-3.4,7.4-6.72,12c3.74-1.79,4.68-4.68,5.53-7.06
		c0.85-2.38,4.94,3.57,0.94,7.91s-6.04,4.85-7.4,7.06c-1.36,2.21-4.77,7.4,0,8.85c3.4,1.11-1.28,11.83-6.38,8.94
		c2.47,1.53,7.15,0.77,8.85-3.83c1.7-4.6,0.17-6.55-1.7-7.91c-1.87-1.36-1.02-5.7,3.15-8.6
		C349.84,166.34,357.33,163.44,354.61,153.83z"/>
	<g>
		<path class="st3" d="M256.82,236.77c-1.92,2.83-4.19,5.46-6.82,7.81c-8.99,8.04-22.16,12.78-39.82,11.2
			c-5.29-0.47-9.92-2.35-13.82-4.96c-12.92-8.63-17.81-25.18-12.06-24.66c0,0,24.52,13.62,52.09,3.41
			C263.97,219.35,265.33,224.23,256.82,236.77z"/>
		<path class="st7" d="M250,244.58c-8.99,8.04-22.16,12.78-39.82,11.2c-5.29-0.47-9.92-2.35-13.82-4.96
			C221.35,236.52,241.34,241.2,250,244.58z"/>
	</g>
	<path class="st8" d="M192.59,281.17c0,0,4.32,21.59,14.19,24.65c9.87,3.06,35.15,7.15,47.87-2.72s11.56-13.04,11.56-13.04
		L192.59,281.17z"/>
</g>
</svg>
