<?xml version="1.0" encoding="utf-8"?>
<!-- Generator: Adobe Illustrator 25.2.0, SVG Export Plug-In . SVG Version: 6.00 Build 0)  -->
<svg version="1.1" id="Layer_1" xmlns="http://www.w3.org/2000/svg" xmlns:xlink="http://www.w3.org/1999/xlink" x="0px" y="0px"
	 viewBox="0 0 1200 1200" style="enable-background:new 0 0 1200 1200;" xml:space="preserve">
<style type="text/css">
	.st0{fill:#1C75BC;}
	.st1{fill:#ED1C24;}
	.st2{fill:#00AEEF;}
	.st3{fill:#BE1E2D;}
	.st4{fill:#9E1F63;}
	.st5{fill:#92278F;}
	.st6{fill:#262262;}
	.st7{fill:#662D91;}
	.st8{fill:#EE2A7B;}
	.st9{fill:#8DC63F;}
	.st10{fill:#F7941D;}
	.st11{fill:#6BF9F5;}
	.st12{fill:#009444;}
	.st13{fill:#D7DF23;}
	.st14{fill:#FBB040;}
	.st15{fill:#F9ED32;}
	.st16{fill:#FFFFFF;}
	.st17{opacity:0.5;fill:url(#SVGID_1_);}
</style>
<g id="Shape_Design">
	<g>
		<path class="st0" d="M1010.86,782.77l91.13,35.65c26.46-60.58,42.26-126.82,45.03-196.37h-97.85
			C1046.4,679.03,1032.97,733.25,1010.86,782.77z"/>
		<path class="st1" d="M150.84,622.05H52.99c3.07,77.05,22.1,150.06,53.93,215.79l89.68-39.25
			C170.05,744.89,153.9,685.16,150.84,622.05z"/>
		<path class="st2" d="M1049.71,600c0,7.39-0.19,14.74-0.55,22.05h97.85c0.29-7.32,0.48-14.66,0.48-22.05
			c0-70.87-13.54-138.63-38.16-200.85l-89.68,39.25C1039.05,488.58,1049.71,543.06,1049.71,600z"/>
		<path class="st3" d="M196.59,798.59l-89.68,39.25c29.2,60.29,69.15,114.44,117.32,159.97l69.15-69.15
			C253.78,891.68,220.85,847.66,196.59,798.59z"/>
		<path class="st4" d="M443.68,1021.67l-35.62,91.07c59.76,22.45,124.44,34.76,191.95,34.76v-97.79
			C545.06,1049.71,492.39,1039.79,443.68,1021.67z"/>
		<path class="st5" d="M600,1049.71C600,1049.71,600,1049.71,600,1049.71l0,97.79c0,0,0,0,0,0c74.88,0,146.3-15.13,211.36-42.46
			l-39.21-89.6C719.1,1037.5,660.95,1049.71,600,1049.71z"/>
		<path class="st6" d="M1101.99,818.42l-91.13-35.65c-24.76,55.44-60.43,104.98-104.25,145.89l69.15,69.15
			C1029.05,947.45,1072.24,886.52,1101.99,818.42z"/>
		<path class="st7" d="M772.15,1015.43l39.21,89.6c61.23-25.72,116.82-62.27,164.39-107.22l-69.15-69.15
			C867.6,965.07,822.15,994.64,772.15,1015.43z"/>
		<path class="st8" d="M293.39,928.66l-69.15,69.15c52.55,49.66,114.9,89.04,183.81,114.93l35.62-91.07
			C387.43,1000.75,336.47,968.87,293.39,928.66z"/>
		<path class="st9" d="M600,150.29c60.62,0,118.46,12.08,171.27,33.92l35.63-91.07C743.03,66.97,673.18,52.5,600,52.5c0,0,0,0,0,0
			L600,150.29C600,150.29,600,150.29,600,150.29z"/>
		<path class="st10" d="M150.29,600c0-50.54,8.39-99.16,23.83-144.54L83,419.81C63.27,476.27,52.5,536.9,52.5,600
			c0,7.39,0.19,14.73,0.48,22.05h97.85C150.48,614.74,150.29,607.39,150.29,600z"/>
		<path class="st11" d="M1019.66,438.4l89.68-39.25c-25.87-65.39-64.01-124.63-111.53-174.91l-69.15,69.15
			C967.61,335.12,998.73,384.24,1019.66,438.4z"/>
		<path class="st12" d="M928.66,293.39l69.15-69.15c-53.19-56.28-118.15-101.29-190.91-131.1l-35.63,91.07
			C831.37,209.06,884.94,246.56,928.66,293.39z"/>
		<path class="st13" d="M600,150.29V52.5c-81.15,0-158.21,17.77-227.55,49.58l39.21,89.6C468.98,165.14,532.79,150.29,600,150.29z"
			/>
		<path class="st14" d="M271.34,293.39l-69.15-69.15C149.71,279.77,108.72,346.23,83,419.81l91.12,35.64
			C194.85,394.53,228.33,339.46,271.34,293.39z"/>
		<path class="st15" d="M411.66,191.69l-39.21-89.6c-64.42,29.56-122.16,71.26-170.26,122.16l69.15,69.15
			C310.88,251.04,358.47,216.32,411.66,191.69z"/>
	</g>
	<path class="st6" d="M1019,600c0,187.5-123.13,346.22-292.94,399.7C686.28,1012.24,643.92,1019,600,1019s-86.28-6.76-126.06-19.31
		C304.13,946.22,181,787.5,181,600c0-231.42,187.58-419,419-419S1019,368.58,1019,600z"/>
	<path class="st6" d="M1186.34,286.83V257.2h-9.47h-10.69h-9.47v29.64h9.47v201.88c-19.99-102.74-67.62-197.86-139.18-276.44
		c-0.09-0.1-0.18-0.19-0.26-0.29c-2.88-3.15-5.79-6.28-8.74-9.38c-0.3-0.31-0.59-0.63-0.89-0.94c-3-3.13-6.02-6.25-9.1-9.33
		c-0.06-0.06-0.12-0.11-0.18-0.17c-0.06-0.06-0.11-0.12-0.17-0.17c-3.08-3.08-6.19-6.1-9.32-9.1c-0.32-0.3-0.64-0.61-0.96-0.91
		c-3.09-2.94-6.21-5.85-9.35-8.71c-0.1-0.09-0.21-0.19-0.31-0.28C909.14,101.44,814.02,53.81,711.28,33.83l201.88,0v9.47h29.64
		v-9.47V23.14v-9.47h-29.64v9.47l-298.01,0v-9.13h-0.33v-0.35h-29.64v0.35h-0.33v9.13l-298.01,0v-9.47H257.2v9.47v10.69v9.47h29.64
		v-9.47l202.55,0c-13.5,2.63-26.83,5.77-39.98,9.33c-0.3,0.08-0.61,0.17-0.91,0.25c-3.28,0.9-6.56,1.81-9.82,2.76
		c-2.53,0.73-5.05,1.49-7.57,2.26c-0.84,0.26-1.67,0.51-2.51,0.77C340.23,76.52,259.26,125.08,192,192.34
		C109.83,274.52,55.53,377.13,33.83,488.72V286.83h9.47V257.2h-9.47H23.14h-9.47v29.64h9.47v298.01h-9.13v0.33h-0.35v29.64h0.35
		v0.33h9.13v298.01h-9.47v29.64h9.47h10.69h9.47v-29.64h-9.47V710.62C53.96,813.79,101.7,907.18,169,982.82
		c0.3,0.34,0.61,0.68,0.92,1.03c2.22,2.48,4.46,4.95,6.72,7.39c0.7,0.75,1.4,1.5,2.1,2.25c1.89,2.02,3.78,4.02,5.69,6.01
		c1.11,1.15,2.23,2.3,3.35,3.44c1.53,1.56,3.06,3.12,4.61,4.67c1.54,1.54,3.1,3.07,4.65,4.59c1.15,1.12,2.29,2.24,3.45,3.36
		c1.99,1.91,3.99,3.81,6.01,5.69c0.75,0.7,1.5,1.41,2.26,2.11c2.44,2.26,4.91,4.5,7.39,6.72c0.34,0.31,0.68,0.61,1.03,0.92
		c75.64,67.3,169.03,115.05,272.2,135.18l-202.55,0v-9.47H257.2v9.47v10.69v9.47h29.64v-9.47l298.01,0v9.13h0.33v0.35h29.64v-0.35
		h0.33v-9.13l298.01,0v9.47h29.64v-9.47v-10.69v-9.47h-29.64v9.47H711.28c111.58-21.71,214.2-76,296.37-158.17
		c67.26-67.26,115.82-148.23,143.14-236.6c0.26-0.83,0.51-1.67,0.77-2.5c0.77-2.52,1.53-5.05,2.26-7.58
		c0.95-3.26,1.87-6.54,2.76-9.83c0.08-0.3,0.17-0.6,0.25-0.9c3.56-13.15,6.7-26.48,9.33-39.98v202.55h-9.47v29.64h9.47h10.69h9.47
		v-29.64h-9.47V615.15h9.13v-0.33h0.35v-29.64h-0.35v-0.33h-9.13V286.83H1186.34z M34.37,615.15h9.28v-0.67v-28.97v-0.67h-9.28
		c3.87-149.96,66.38-285.59,165.39-384.76c99.2-99.2,234.97-161.84,385.09-165.72v9.28h0.67h28.97h0.67v-9.28
		c150.04,3.88,285.74,66.45,384.93,165.55c99.1,99.19,161.68,234.88,165.55,384.93l-9.28,0v0.67v28.97v0.67h9.28
		c-3.88,150.13-66.52,285.89-165.72,385.09c-99.18,99.01-234.8,161.51-384.76,165.39v-9.28h-0.67h-28.97h-0.67v9.28
		c-150.04-3.88-285.74-66.45-384.93-165.55C100.81,900.89,38.24,765.2,34.37,615.15z"/>
	<g>
		<g>
			<path class="st16" d="M753.52,785.66L753.52,785.66c0,21.57-17.48,39.05-39.05,39.05H485.53c-21.56,0-39.05-17.48-39.05-39.05v0
				c0-21.56,17.48-39.05,39.05-39.05h228.94C736.04,746.61,753.52,764.09,753.52,785.66z"/>
			<path class="st16" d="M619.92,285.02v57.47c0,81.95,7.15,164.11,27.21,243.57c0.95,3.83,1.45,7.79,1.45,11.93
				c0,28.67-24.7,51.46-53.95,48.31c-22.24-2.37-40.23-20.14-42.86-42.36c-0.75-6.23-0.31-12.29,1.12-17.94
				c20.14-79.29,27.18-161.32,27.18-243.13v-57.92l-178.45,329.6l67.08,123.88c5.25-1.87,10.9-2.91,16.82-2.91h228.93
				c5.92,0,11.57,1.03,16.82,2.91l67.08-123.88L619.92,285.02z"/>
		</g>
		<path class="st16" d="M726.06,831.14V999.7C686.28,1012.24,643.92,1019,600,1019s-86.28-6.76-126.06-19.31V831.14H726.06z"/>
	</g>
	<radialGradient id="SVGID_1_" cx="600" cy="600.0001" r="418.9988" gradientUnits="userSpaceOnUse">
		<stop  offset="0.7263" style="stop-color:#FFFFFF;stop-opacity:0"/>
		<stop  offset="1" style="stop-color:#000000"/>
	</radialGradient>
	<circle class="st17" cx="600" cy="600" r="419"/>
</g>
</svg>
